<?xml version="1.0" encoding="utf-8"?>
<!-- Generator: Adobe Illustrator 23.0.0, SVG Export Plug-In . SVG Version: 6.00 Build 0)  -->
<svg version="1.1" id="Layer_1" xmlns="http://www.w3.org/2000/svg" xmlns:xlink="http://www.w3.org/1999/xlink" x="0px" y="0px"
	 viewBox="0 0 251.76 250.87" style="enable-background:new 0 0 251.76 250.87;" xml:space="preserve">
<style type="text/css">
	.st0{fill:#52C3CC;}
	.st1{fill:#FDFEFE;}
</style>
<g>
	<path class="st0" d="M0.41,108.29C8.94,53.83,49.12,12.68,103.12,2.79c2.97-0.54,0.96-0.22,5.86-1.29c0.33,0,3.78-0.7,4.12-0.7
		c7.49-1.12,14.65-0.98,22,0c0.67,0,4.64,1.04,5.33,1.14c3.54,0.69,2.67,0.39,5.66,0.89c50.89,8.47,91.31,46.94,102,97.08
		c0.99,4.62,0.91,2.16,2.99,13.87c0,1.26,0,2,0,3c1.03,7.05,0.75,11.44,0,19c0,1-0.18,1.87-0.29,3.15c-0.22,1.52-0.19,1.45-0.59,3.4
		c-7.4,53.74-46.45,95.09-99.75,106.55c-4.45,0.96-5.06,1.31-13.36,1.89c-1.33,0-2.67,0-4,0c-4.13,0.03-4.13,0.03-6.22,0.03
		c-40.14-0.04-80.29-0.12-120.43,0.08c-5.06,0.03-6.47-1.35-6.45-6.43c0.2-40.48,0.12-80.95,0.08-121.43 M65.09,157.72
		c-0.01,0-0.02,0-0.04,0c0,19.99,0.1,39.98-0.08,59.98c-0.04,4.02,0.92,5.71,5.23,5.43c5.31-0.34,10.67-0.34,15.98,0
		c4.3,0.27,5.82-0.99,5.73-5.52c-0.28-14.16,0.08-28.32-0.21-42.48c-0.09-4.55,1.42-5.59,5.7-5.5c12.32,0.27,24.66,0.24,36.98,0.06
		c32.79-0.47,62.15-27.88,64.65-60.2c2.89-37.29-21.67-67.73-58.85-72.97c-38.5-5.43-74.66,25.43-75.07,64.23
		C64.92,119.73,65.09,138.73,65.09,157.72z"/>
	<path class="st1" d="M65.09,157.72c0-18.99-0.17-37.99,0.03-56.98c0.41-38.8,36.57-69.66,75.07-64.23
		c37.18,5.24,61.74,35.69,58.85,72.97c-2.5,32.32-31.86,59.73-64.65,60.2c-12.33,0.18-24.66,0.21-36.98-0.06
		c-4.28-0.09-5.8,0.94-5.7,5.5c0.29,14.15-0.07,28.32,0.21,42.48c0.09,4.53-1.43,5.8-5.73,5.52c-5.31-0.34-10.67-0.34-15.98,0
		c-4.31,0.28-5.27-1.41-5.23-5.43c0.18-19.99,0.08-39.98,0.08-59.98C65.06,157.72,65.07,157.72,65.09,157.72z M116.7,142.96
		c5,0,10,0.03,14.99,0c24.45-0.15,41.94-18.75,40.65-43.21c-1.1-20.85-18.68-37.04-40.26-37.09C110.68,62.59,92.76,78.97,92,99.83
		c-0.47,12.98-0.06,25.99-0.24,38.98c-0.05,3.39,1.33,4.27,4.45,4.19C103.04,142.85,109.87,142.95,116.7,142.96z"/>
	<path class="st0" d="M116.7,142.96c-6.83,0-13.66-0.11-20.49,0.05c-3.12,0.07-4.5-0.81-4.45-4.19c0.17-12.99-0.23-26,0.24-38.98
		c0.76-20.86,18.68-37.24,40.08-37.19c21.59,0.05,39.16,16.25,40.26,37.09c1.29,24.47-16.2,43.07-40.65,43.21
		C126.7,142.98,121.7,142.96,116.7,142.96z"/>
</g>
</svg>
